<svg viewBox="0 0 80 80" xmlns="http://www.w3.org/2000/svg" xmlns:svg="http://www.w3.org/2000/svg">
  <g transform="rotate(0, 40, 40)">
    <path d="m 12,0 h 56 c 6.648,0 12,5.352 12,12 v 56 c 0,6.648 -5.352,12 -12,12 H 12 C 5.352,80 0,74.648 0,68 V 12 C 0,5.352 5.352,0 12,0 Z" fill="#efe3ae" />
    <path d="m 51.320312,47.628907 q 0,3.046875 -1.476562,5.296875 -1.476563,2.25 -4.3125,3.46875 -2.8125,1.21875 -6.84375,1.21875 -1.78125,0 -3.492188,-0.234375 -1.6875,-0.234375 -3.257812,-0.679687 -1.546875,-0.46875 -2.953125,-1.148438 v -6.75 q 2.4375,1.078125 5.0625,1.945313 2.625,0.867187 5.203125,0.867187 1.78125,0 2.859375,-0.46875 1.101562,-0.46875 1.59375,-1.289062 0.492187,-0.820313 0.492187,-1.875 0,-1.289063 -0.867187,-2.203125 Q 42.460937,44.863282 40.9375,44.066407 39.4375,43.269532 37.539062,42.35547 36.34375,41.79297 34.9375,40.996095 33.53125,40.175782 32.265625,39.003907 31,37.832032 30.179687,36.16797 q -0.796875,-1.6875 -0.796875,-4.03125 0,-3.070313 1.40625,-5.25 1.40625,-2.179688 4.007813,-3.328125 2.625,-1.171875 6.1875,-1.171875 2.671875,0 5.085937,0.632812 2.4375,0.609375 5.085938,1.78125 L 48.8125,30.44922 q -2.367188,-0.960938 -4.242188,-1.476563 -1.875,-0.539062 -3.820312,-0.539062 -1.359375,0 -2.320313,0.445312 -0.960937,0.421875 -1.453125,1.21875 -0.492187,0.773438 -0.492187,1.804688 0,1.21875 0.703125,2.0625 0.726562,0.820312 2.15625,1.59375 1.453125,0.773437 3.609375,1.804687 2.625,1.242188 4.476562,2.601563 1.875,1.335937 2.882813,3.164062 1.007812,1.804688 1.007812,4.5 z" />
  </g>
</svg>
