<svg viewBox="0 0 7410 3900" xmlns="http://www.w3.org/2000/svg">
  <rect width="7410" height="3900" fill="#b22234" />
  <path d="M0,450H7410m0,600H0m0,600H7410m0,600H0m0,600H7410m0,600H0" stroke="#fff" stroke-width="300" />
  <rect width="2964" height="2100" fill="#3c3b6e" />
  <g fill="#fff">
    <g id="s18">
      <g id="s9">
        <g id="s5">
          <g id="s4">
            <path id="s" d="M247,90 317.534230,307.082039 132.873218,172.917961H361.126782L176.465770,307.082039z" />
            <use xlink:href="#s" y="420" />
            <use xlink:href="#s" y="840" />
            <use xlink:href="#s" y="1260" />
          </g>
          <use xlink:href="#s" y="1680" />
        </g>
        <use xlink:href="#s4" x="247" y="210" />
      </g>
      <use xlink:href="#s9" x="494" />
    </g>
    <use xlink:href="#s18" x="988" />
    <use xlink:href="#s9" x="1976" />
    <use xlink:href="#s5" x="2470" />
  </g>
  <clipPath id="t">
    <path d="M30,15 h30 v15 z v15 h-30 z h-30 v-15 z v-15 h30 z" />
  </clipPath>
  <path d="M0,0 v30 h60 v-30 z" fill="#00247d" />
  <path d="M0,0 L60,30 M60,0 L0,30" stroke="#fff" stroke-width="6" />
  <path d="M0,0 L60,30 M60,0 L0,30" clipPath="url(#t)" stroke="#cf142b" stroke-width="4" />
  <path d="M30,0 v30 M0,15 h60" stroke="#fff" stroke-width="10" />
  <path d="M30,0 v30 M0,15 h60" stroke="#cf142b" stroke-width="6" />
</svg>
