<!-- https://icons.getbootstrap.com/icons/square/ -->
<!-- https://icons.getbootstrap.com/icons/alphabet-uppercase/ -->
<svg xmlns="http://www.w3.org/2000/svg" fill="currentColor" viewBox="0 0 16 16">
  <path
    d="m 2.75,4 v 0.75 h 7.75 a 0.75,0.75 0 0 1 0.75,0.75 v 7.75 H 12 V 5.5 A 1.5,1.5 0 0 0 10.5,4 Z"
    stroke-width="0.75" />
  <path
    d="m 12,14 h -0.75 v 0.5 a 0.75,0.75 0 0 1 -0.75,0.75 h -9 A 0.75,0.75 0 0 1 0.75,14.5 v -9 A 0.75,0.75 0 0 1 1.5,4.75 H 2 V 4 H 1.5 A 1.5,1.5 0 0 0 0,5.5 v 9 A 1.5,1.5 0 0 0 1.5,16 h 9 A 1.5,1.5 0 0 0 12,14.5 Z"
    stroke-width="0.75" />
  <path
    d="M 2,4.75 H 2.75 V 4 H 2 Z"
    stroke-width="0.75" />
  <path
    d="M 12,14 V 13.25 H 11.25 V 14 Z"
    stroke-width="0.75" />
  <path
    d="m 4.75,2 v 0.75 h 7.75 a 0.75,0.75 0 0 1 0.75,0.75 v 7.75 H 14 V 3.5 A 1.5,1.5 0 0 0 12.5,2 Z"
    stroke-width="0.75" />
  <path
    d="M 4,2.75 V 2 H 3.5 A 1.5,1.5 0 0 0 2,3.5 V 4 H 2.75 V 3.5 A 0.75,0.75 0 0 1 3.5,2.75 Z"
    stroke-width="0.75" />
  <path
    d="m 14,12 h -0.75 v 0.5 A 0.75,0.75 0 0 1 12.5,13.25 H 12 V 14 h 0.5 A 1.5,1.5 0 0 0 14,12.5 Z"
    stroke-width="0.75" />
  <path
    d="M 4,2.75 H 4.75 V 2 H 4 Z"
    stroke-width="0.75" />
  <path
    d="M 14,12 V 11.25 H 13.25 V 12 Z"
    stroke-width="0.75" />
  <path
    d="M 5.5,0 A 1.5,1.5 0 0 0 4,1.5 V 2 H 4.75 V 1.5 A 0.75,0.75 0 0 1 5.5,0.75 h 9 a 0.75,0.75 0 0 1 0.75,0.75 v 9 A 0.75,0.75 0 0 1 14.5,11.25 H 14 V 12 h 0.5 A 1.5,1.5 0 0 0 16,10.5 v -9 A 1.5,1.5 0 0 0 14.5,0 Z"
    stroke-width="0.75" />
  <path
    d="m 6.0681154,7.5625 c -1.2292485,0 -1.9306643,0.8220717 -1.9306643,2.1533204 v 0.5844726 c 0,1.331999 0.6946658,2.137207 1.9306643,2.137207 1.0072492,0 1.7509335,-0.619864 1.7944335,-1.516113 v -0.09082 H 6.9836426 c -0.03675,0.481499 -0.3809182,0.821777 -0.9096682,0.821777 -0.6427493,0 -1.0092773,-0.485051 -1.0092773,-1.352051 V 9.7202149 c 0,-0.8699992 0.372528,-1.3725586 1.0092773,-1.3725586 0.522,0 0.8721682,0.3669731 0.9096682,0.8657227 H 7.8625489 V 9.1284181 C 7.8227989,8.199919 7.0783646,7.5625 6.0681154,7.5625 Z"
    stroke-width="0.75" />
</svg>
