<!-- https://icons.getbootstrap.com/icons/square/ -->
<!-- https://icons.getbootstrap.com/icons/alphabet-uppercase/ -->
<svg xmlns="http://www.w3.org/2000/svg" fill="currentColor" viewBox="0 0 16 16">
  <path d="M14 1a1 1 0 0 1 1 1v12a1 1 0 0 1-1 1H2a1 1 0 0 1-1-1V2a1 1 0 0 1 1-1h12zM2 0a2 2 0 0 0-2 2v12a2 2 0 0 0 2 2h12a2 2 0 0 0 2-2V2a2 2 0 0 0-2-2H2z" />
  <path d="m 5.658203,4.8691408 v 6.2617182 h 2.5507813 c 1.2429974,0 2.1328127,-0.646627 2.1328127,-1.7656244 0,-0.9409982 -0.629236,-1.4533438 -1.3652346,-1.5273438 V 7.7812502 C 9.5825612,7.6292506 10.027344,7.172155 10.027344,6.4101564 c 0,-0.957998 -0.7185963,-1.5410156 -1.8085941,-1.5410156 z m 1.203125,0.9316406 h 1.0742187 c 0.569999,1e-7 0.8964844,0.3103136 0.8964844,0.8203126 0,0.5449988 -0.3579236,0.8535156 -1.1699218,0.8535156 H 6.861328 Z m 0,2.5371094 h 1.1503906 c 0.7129986,0 1.0957031,0.3621262 1.0957031,0.953125 10e-8,0.5969988 -0.3927518,0.9082032 -1.34375,0.9082032 H 6.861328 Z" />
</svg>
