<!-- https://icons.getbootstrap.com/icons/square/ -->
<!-- https://icons.getbootstrap.com/icons/alphabet-uppercase/ -->
<svg xmlns="http://www.w3.org/2000/svg" fill="currentColor" viewBox="0 0 16 16">
  <path
    d="m 2.75,4 v 0.75 h 7.75 a 0.75,0.75 0 0 1 0.75,0.75 v 7.75 H 12 V 5.5 A 1.5,1.5 0 0 0 10.5,4 Z"
    stroke-width="0.75" />
  <path
    d="m 12,14 h -0.75 v 0.5 a 0.75,0.75 0 0 1 -0.75,0.75 h -9 A 0.75,0.75 0 0 1 0.75,14.5 v -9 A 0.75,0.75 0 0 1 1.5,4.75 H 2 V 4 H 1.5 A 1.5,1.5 0 0 0 0,5.5 v 9 A 1.5,1.5 0 0 0 1.5,16 h 9 A 1.5,1.5 0 0 0 12,14.5 Z"
    stroke-width="0.75" />
  <path
    d="M 2,4.75 H 2.75 V 4 H 2 Z"
    stroke-width="0.75" />
  <path
    d="M 12,14 V 13.25 H 11.25 V 14 Z"
    stroke-width="0.75" />
  <path
    d="m 4.75,2 v 0.75 h 7.75 a 0.75,0.75 0 0 1 0.75,0.75 v 7.75 H 14 V 3.5 A 1.5,1.5 0 0 0 12.5,2 Z"
    stroke-width="0.75" />
  <path
    d="M 4,2.75 V 2 H 3.5 A 1.5,1.5 0 0 0 2,3.5 V 4 H 2.75 V 3.5 A 0.75,0.75 0 0 1 3.5,2.75 Z"
    stroke-width="0.75" />
  <path
    d="m 14,12 h -0.75 v 0.5 A 0.75,0.75 0 0 1 12.5,13.25 H 12 V 14 h 0.5 A 1.5,1.5 0 0 0 14,12.5 Z"
    stroke-width="0.75" />
  <path
    d="M 4,2.75 H 4.75 V 2 H 4 Z"
    stroke-width="0.75" />
  <path
    d="M 14,12 V 11.25 H 13.25 V 12 Z"
    stroke-width="0.75" />
  <path
    d="M 5.5,0 A 1.5,1.5 0 0 0 4,1.5 V 2 H 4.75 V 1.5 A 0.75,0.75 0 0 1 5.5,0.75 h 9 a 0.75,0.75 0 0 1 0.75,0.75 v 9 A 0.75,0.75 0 0 1 14.5,11.25 H 14 V 12 h 0.5 A 1.5,1.5 0 0 0 16,10.5 v -9 A 1.5,1.5 0 0 0 14.5,0 Z"
    stroke-width="0.75" />
</svg>
