<!-- https://icons.getbootstrap.com/icons/square/ -->
<!-- https://icons.getbootstrap.com/icons/alphabet-uppercase/ -->
<svg xmlns="http://www.w3.org/2000/svg" fill="currentColor" viewBox="0 0 16 16">
  <path
    d="M 7.21875,0.51562499 A 0.51562499,0.51562499 0 0 1 7.734375,1.03125 v 6.1875 A 0.51562499,0.51562499 0 0 1 7.21875,7.734375 H 1.03125 A 0.51562499,0.51562499 0 0 1 0.51562499,7.21875 V 1.03125 A 0.51562499,0.51562499 0 0 1 1.03125,0.51562499 Z M 1.03125,0 A 1.03125,1.03125 0 0 0 0,1.03125 v 6.1875 A 1.03125,1.03125 0 0 0 1.03125,8.25 h 6.1875 A 1.03125,1.03125 0 0 0 8.25,7.21875 V 1.03125 A 1.03125,1.03125 0 0 0 7.21875,0 Z"
    stroke-width="0.5" />
  <path
    d="m 14.96875,8.265625 a 0.51562499,0.51562499 0 0 1 0.515625,0.515625 v 6.1875 A 0.51562499,0.51562499 0 0 1 14.96875,15.484375 H 8.7812501 A 0.51562499,0.51562499 0 0 1 8.265625,14.96875 V 8.78125 A 0.51562499,0.51562499 0 0 1 8.7812501,8.265625 Z M 8.7812501,7.75 A 1.03125,1.03125 0 0 0 7.75,8.78125 v 6.1875 A 1.03125,1.03125 0 0 0 8.7812501,16 H 14.96875 A 1.03125,1.03125 0 0 0 16,14.96875 V 8.78125 A 1.03125,1.03125 0 0 0 14.96875,7.75 Z"
    stroke-width="0.5" />
  <path
    d="M 3.7614277,2.5 2.7009247,5.75 H 3.3333995 L 3.5811523,4.9136776 H 4.6366198 L 4.8833654,5.75 H 5.5490753 L 4.493608,2.5 Z m 0.3343657,0.6224265 h 0.0282 L 4.5107288,4.4362133 H 3.7090572 Z"
    stroke-width="0.5" />
  <path
    d="m 2.954049,10.250001 v 3.25 h 1.275448 c 0.621526,0 1.066454,-0.335617 1.066454,-0.916407 0,-0.488403 -0.314632,-0.754324 -0.682648,-0.792732 v -0.0294 c 0.303013,-0.07889 0.525414,-0.316137 0.525414,-0.711635 0,-0.497226 -0.359314,-0.799828 -0.904337,-0.799828 z m 0.60159,0.483546 h 0.537133 c 0.285012,0 0.448262,0.161062 0.448262,0.425765 0,0.282869 -0.17897,0.442997 -0.584987,0.442997 H 3.555639 Z m 0,1.316828 h 0.57522 c 0.356516,0 0.547877,0.187953 0.547877,0.494698 0,0.309859 -0.196385,0.471382 -0.671906,0.471382 H 3.555639 Z"
    stroke-width="0.5" />
  <path
    d="M 7.21875,8.265625 A 0.51562499,0.51562499 0 0 1 7.734375,8.78125 v 6.1875 A 0.51562499,0.51562499 0 0 1 7.21875,15.484375 H 1.03125 A 0.51562499,0.51562499 0 0 1 0.515625,14.96875 V 8.78125 A 0.51562499,0.51562499 0 0 1 1.03125,8.265625 Z M 1.03125,7.75 A 1.03125,1.03125 0 0 0 0,8.78125 v 6.1875 A 1.03125,1.03125 0 0 0 1.03125,16 h 6.1875 A 1.03125,1.03125 0 0 0 8.25,14.96875 V 8.78125 A 1.03125,1.03125 0 0 0 7.21875,7.75 Z"
    stroke-width="0.5" />
  <path
    d="m 11.92041,10.250001 c -0.819499,0 -1.287109,0.548047 -1.287109,1.435547 v 0.389648 c 0,0.887999 0.46311,1.424805 1.287109,1.424805 0.6715,0 1.167289,-0.413243 1.196289,-1.010742 v -0.06055 h -0.585937 c -0.0245,0.320999 -0.253946,0.547851 -0.606446,0.547851 -0.428499,0 -0.672851,-0.323367 -0.672851,-0.901367 v -0.386719 c 0,-0.579999 0.248352,-0.915039 0.672851,-0.915039 0.348,0 0.581446,0.244649 0.606446,0.577149 h 0.585937 v -0.05664 c -0.0265,-0.618999 -0.522789,-1.043945 -1.196289,-1.043945 z"
    stroke-width="0.5" />
</svg>
